<?xml version="1.0" encoding="UTF-8" standalone="no" ?>
<!DOCTYPE svg PUBLIC "-//W3C//DTD SVG 1.1//EN" "http://www.w3.org/Graphics/SVG/1.1/DTD/svg11.dtd">
<svg xmlns="http://www.w3.org/2000/svg" xmlns:xlink="http://www.w3.org/1999/xlink" version="1.1" width="1080" height="1080" viewBox="0 0 1080 1080" xml:space="preserve">
<desc>Created with Fabric.js 5.2.4</desc>
<defs>
</defs>
<rect x="0" y="0" width="100%" height="100%" fill="transparent"></rect>
<g transform="matrix(1 0 0 1 540 540)" id="27b8d0fc-e541-4ab8-8660-1b895c3233ff"  >
</g>
<g transform="matrix(1 0 0 1 540 540)" id="ad418713-1e83-4690-b703-bc525aaa87b0"  >
<rect style="stroke: none; stroke-width: 1; stroke-dasharray: none; stroke-linecap: butt; stroke-dashoffset: 0; stroke-linejoin: miter; stroke-miterlimit: 4; fill: rgb(255,255,255); fill-rule: nonzero; opacity: 1; visibility: hidden;" vector-effect="non-scaling-stroke"  x="-540" y="-540" rx="0" ry="0" width="1080" height="1080" />
</g>
<g transform="matrix(4.3 0 0 4.3 113.63 379.22)"  >
<g style="" vector-effect="non-scaling-stroke"   >
		<g transform="matrix(1 0 0 1 7.34 -6.83)"  >
<path style="stroke: none; stroke-width: 1; stroke-dasharray: none; stroke-linecap: butt; stroke-dashoffset: 0; stroke-linejoin: miter; stroke-miterlimit: 4; fill: rgb(0,0,0); fill-rule: nonzero; opacity: 1;" vector-effect="non-scaling-stroke"  transform=" translate(-246.96, -536.8)" d="M 248.25999 536.802 C 248.26766 537.17138 248.11044 537.54065 247.82878 537.78185 C 247.46853 538.11076 246.91933 538.17813 246.47048 538.01071 C 246.02563 537.83894 245.69678 537.39883 245.67145 536.9206 C 245.63767 536.54689 245.75685 536.15479 246.02747 535.88867 C 246.28257 535.6168 246.66244 535.48397 247.03147 535.50645 C 247.41131 535.51452 247.77805 535.70601 248.00489 536.01019 C 248.17962 536.23452 248.26238 536.51954 248.25999 536.802 z" stroke-linecap="round" />
</g>
		<g transform="matrix(1 0 0 1 7.34 -0.99)"  >
<path style="stroke: none; stroke-width: 1; stroke-dasharray: none; stroke-linecap: butt; stroke-dashoffset: 0; stroke-linejoin: miter; stroke-miterlimit: 4; fill: rgb(0,0,0); fill-rule: nonzero; opacity: 1;" vector-effect="non-scaling-stroke"  transform=" translate(-246.96, -542.65)" d="M 248.25999 542.64502 C 248.26772 543.01469 248.11076 543.38446 247.82878 543.62585 C 247.46853 543.95476 246.91933 544.02213 246.47048 543.85472 C 246.02537 543.68288 245.69655 543.24237 245.67145 542.76389 C 245.63651 542.3899 245.76354 542.00308 246.027 541.733 C 246.27663 541.45454 246.6606 541.3279 247.02845 541.3495 C 247.5123 541.36282 247.95159 541.69251 248.15162 542.12465 C 248.22565 542.2874 248.26043 542.46657 248.25999 542.64502 z" stroke-linecap="round" />
</g>
		<g transform="matrix(1 0 0 1 -2.14 0)"  >
<path style="stroke: none; stroke-width: 1; stroke-dasharray: none; stroke-linecap: butt; stroke-dashoffset: 0; stroke-linejoin: miter; stroke-miterlimit: 4; fill: rgb(0,0,0); fill-rule: nonzero; opacity: 1;" vector-effect="non-scaling-stroke"  transform=" translate(-237.48, -543.63)" d="M 243.979 540.86798 C 244.02398 543.69258 242.7636 546.43815 240.76469 548.40449 C 238.27527 550.89277 235.01791 552.47534 231.69762 553.53261 C 231.2559 553.77182 230.5897 553.45643 231.2855 553.13144 C 232.62346 552.52289 234.01319 552.0005 235.24564 551.1808 C 237.96799 549.4975 240.26523 546.84674 240.82279 543.61854 C 241.14771 541.65352 241.05724 539.60795 240.56484 537.67852 C 240.20352 536.25993 239.22033 534.7955 237.66352 534.58587 C 236.25068 534.36961 234.74885 534.85905 233.74057 535.88093 C 233.47541 536.14967 232.95916 536.89403 233.04435 537.74747 C 233.64637 537.27468 233.60528 537.32732 234.099 537.10717 C 235.23573 536.60031 236.74349 537.32105 237.027 538.57272 C 237.32909 539.72295 237.09551 541.18638 235.96036 541.7996 C 234.77512 542.44413 233.02612 542.17738 232.3645 540.90866 C 231.26916 538.95418 231.87147 536.28193 233.64202 534.92571 C 235.44514 533.42924 238.07609 533.37089 240.19963 534.13862 C 242.38419 534.95111 243.68629 537.21483 243.89691 539.45694 C 243.95419 539.92492 243.97896 540.39668 243.979 540.86798 z" stroke-linecap="round" />
</g>
</g>
</g>
<g transform="matrix(0.08 0 0 -0.08 107.23 164.01)"  >
<path style="stroke: none; stroke-width: 1; stroke-dasharray: none; stroke-linecap: butt; stroke-dashoffset: 0; stroke-linejoin: miter; stroke-miterlimit: 4; fill: rgb(0,0,0); fill-rule: nonzero; opacity: 1;" vector-effect="non-scaling-stroke"  transform=" translate(-320, -223)" d="M 562 -21 C 562 68 497 129 407 129 C 414 85 441 -74 462 -194 C 533 -165 562 -92 562 -21 z M 420 -206 L 362 123 C 303 109 258 60 258 -1 C 258 -50 280 -76 319 -100 C 331 -108 341 -113 341 -122 C 341 -131 332 -135 324 -135 C 244 -135 189 -39 189 31 C 189 125 251 221 342 248 C 335 289 328 336 319 390 C 304 375 288 361 271 346 C 183 270 97 161 97 39 C 97 -112 219 -212 362 -212 C 381 -212 400 -210 420 -206 z M 332 822 C 324 791 321 757 321 720 C 321 678 326 639 332 599 C 401 667 478 745 478 849 C 478 918 454 967 439 967 C 387 967 341 862 332 822 z M 122 -513 C 122 -447 167 -390 237 -390 C 312 -390 353 -447 353 -501 C 353 -565 306 -605 259 -612 C 256 -613 254 -614 254 -616 C 254 -617 256 -618 257 -619 C 259 -619 280 -624 304 -624 C 405 -624 458 -569 458 -465 C 458 -412 447 -342 428 -246 C 405 -250 378 -253 349 -253 C 163 -253 0 -106 0 81 C 0 281 126 402 217 487 C 238 504 290 557 291 558 C 274 670 269 719 269 773 C 269 857 287 985 351 1061 C 384 1100 415 1112 422 1112 C 440 1112 469 1077 493 1026 C 509 990 537 916 537 825 C 537 666 464 541 358 430 C 367 374 377 315 387 255 C 533 255 640 153 640 2 C 640 -101 567 -203 469 -235 C 475 -274 481 -304 484 -324 C 494 -381 500 -426 500 -465 C 500 -528 486 -594 432 -632 C 396 -654 355 -666 308 -666 C 173 -666 122 -579 122 -513 z" stroke-linecap="round" />
</g>
<g transform="matrix(25.98 0 0 25.98 -132.26 57.29)" style="" id="text4"  >
		<text xml:space="preserve" font-family="Century Schoolbook L" font-size="2.19950008" font-style="normal" font-weight="normal" style="stroke: none; stroke-width: 1; stroke-dasharray: none; stroke-linecap: butt; stroke-dashoffset: 0; stroke-linejoin: miter; stroke-miterlimit: 4; fill: rgb(0,0,0); fill-rule: nonzero; opacity: 1; white-space: pre;" ></text>
</g>
<g transform="matrix(25.98 0 0 25.98 562.19 206.76)" id="line38"  >
<line style="stroke: rgb(0,0,0); stroke-width: 1; stroke-dasharray: none; stroke-linecap: round; stroke-dashoffset: 0; stroke-linejoin: round; stroke-miterlimit: 4; fill: rgb(0,0,0); fill-rule: nonzero; opacity: 1;" vector-effect="non-scaling-stroke"  x1="-19.1349999995" y1="0" x2="19.1349999995" y2="0" />
</g>
<g transform="matrix(25.98 0 0 25.98 562.19 180.78)" id="line40"  >
<line style="stroke: rgb(0,0,0); stroke-width: 1; stroke-dasharray: none; stroke-linecap: round; stroke-dashoffset: 0; stroke-linejoin: round; stroke-miterlimit: 4; fill: rgb(0,0,0); fill-rule: nonzero; opacity: 1;" vector-effect="non-scaling-stroke"  x1="-19.1349999995" y1="0" x2="19.1349999995" y2="0" />
</g>
<g transform="matrix(25.98 0 0 25.98 562.19 154.8)" id="line42"  >
<line style="stroke: rgb(0,0,0); stroke-width: 1; stroke-dasharray: none; stroke-linecap: round; stroke-dashoffset: 0; stroke-linejoin: round; stroke-miterlimit: 4; fill: rgb(0,0,0); fill-rule: nonzero; opacity: 1;" vector-effect="non-scaling-stroke"  x1="-19.1349999995" y1="0" x2="19.1349999995" y2="0" />
</g>
<g transform="matrix(25.98 0 0 25.98 560.8 128.87)" id="line44"  >
<line style="stroke: rgb(0,0,0); stroke-width: 1; stroke-dasharray: none; stroke-linecap: round; stroke-dashoffset: 0; stroke-linejoin: round; stroke-miterlimit: 4; fill: rgb(0,0,0); fill-rule: nonzero; opacity: 1;" vector-effect="non-scaling-stroke"  x1="-19.1349999995" y1="0" x2="19.1349999995" y2="0" />
</g>
<g transform="matrix(25.98 0 0 25.98 562.19 102.89)" id="line46"  >
<line style="stroke: rgb(0,0,0); stroke-width: 1; stroke-dasharray: none; stroke-linecap: round; stroke-dashoffset: 0; stroke-linejoin: round; stroke-miterlimit: 4; fill: rgb(0,0,0); fill-rule: nonzero; opacity: 1;" vector-effect="non-scaling-stroke"  x1="-19.1349999995" y1="0" x2="19.1349999995" y2="0" />
</g>
<g transform="matrix(25.98 0 0 25.98 562.19 440.43)" id="line50"  >
<line style="stroke: rgb(0,0,0); stroke-width: 1; stroke-dasharray: none; stroke-linecap: round; stroke-dashoffset: 0; stroke-linejoin: round; stroke-miterlimit: 4; fill: rgb(0,0,0); fill-rule: nonzero; opacity: 1;" vector-effect="non-scaling-stroke"  x1="-19.1349999995" y1="0" x2="19.1349999995" y2="0" />
</g>
<g transform="matrix(25.98 0 0 25.98 562.19 414.45)" id="line52"  >
<line style="stroke: rgb(0,0,0); stroke-width: 1; stroke-dasharray: none; stroke-linecap: round; stroke-dashoffset: 0; stroke-linejoin: round; stroke-miterlimit: 4; fill: rgb(0,0,0); fill-rule: nonzero; opacity: 1;" vector-effect="non-scaling-stroke"  x1="-19.1349999995" y1="0" x2="19.1349999995" y2="0" />
</g>
<g transform="matrix(25.98 0 0 25.98 562.19 388.47)" id="line54"  >
<line style="stroke: rgb(0,0,0); stroke-width: 1; stroke-dasharray: none; stroke-linecap: round; stroke-dashoffset: 0; stroke-linejoin: round; stroke-miterlimit: 4; fill: rgb(0,0,0); fill-rule: nonzero; opacity: 1;" vector-effect="non-scaling-stroke"  x1="-19.1349999995" y1="0" x2="19.1349999995" y2="0" />
</g>
<g transform="matrix(25.98 0 0 25.98 562.19 362.54)" id="line56"  >
<line style="stroke: rgb(0,0,0); stroke-width: 1; stroke-dasharray: none; stroke-linecap: round; stroke-dashoffset: 0; stroke-linejoin: round; stroke-miterlimit: 4; fill: rgb(0,0,0); fill-rule: nonzero; opacity: 1;" vector-effect="non-scaling-stroke"  x1="-19.1349999995" y1="0" x2="19.1349999995" y2="0" />
</g>
<g transform="matrix(25.98 0 0 25.98 562.19 336.56)" id="line58"  >
<line style="stroke: rgb(0,0,0); stroke-width: 1; stroke-dasharray: none; stroke-linecap: round; stroke-dashoffset: 0; stroke-linejoin: round; stroke-miterlimit: 4; fill: rgb(0,0,0); fill-rule: nonzero; opacity: 1;" vector-effect="non-scaling-stroke"  x1="-19.1349999995" y1="0" x2="19.1349999995" y2="0" />
</g>
<g transform="matrix(25.98 0 0 25.98 63.87 271.3)" id="rect70"  >
<rect style="stroke: none; stroke-width: 1; stroke-dasharray: none; stroke-linecap: butt; stroke-dashoffset: 0; stroke-linejoin: miter; stroke-miterlimit: 4; fill: rgb(0,0,0); fill-rule: nonzero; opacity: 1;" vector-effect="non-scaling-stroke"  x="-0.08" y="-6.55" rx="0.050000001" ry="0.050000001" width="0.16" height="13.1" />
</g>
<g transform="matrix(0.1 0 0 -0.1 39.11 270.66)"  >
<path style="stroke: none; stroke-width: 1; stroke-dasharray: none; stroke-linecap: butt; stroke-dashoffset: 0; stroke-linejoin: miter; stroke-miterlimit: 4; fill: rgb(0,0,0); fill-rule: nonzero; opacity: 1;" vector-effect="non-scaling-stroke"  transform=" translate(99, 0)" d="M -15 -498 C -15 -759 -117 -1014 -117 -1263 C -117 -1398 -87 -1524 12 -1623 C 15 -1626 15 -1632 15 -1635 C 15 -1644 9 -1653 0 -1653 C -3 -1653 -9 -1650 -12 -1647 C -144 -1512 -189 -1335 -189 -1146 C -189 -879 -81 -618 -81 -366 C -81 -231 -114 -105 -210 -6 C -213 -3 -213 -3 -213 0 C -213 3 -213 3 -210 6 C -114 105 -81 231 -81 366 C -81 618 -189 879 -189 1146 C -189 1335 -144 1512 -12 1647 C -9 1650 -3 1653 0 1653 C 9 1653 15 1644 15 1635 C 15 1632 15 1626 12 1623 C -87 1524 -117 1398 -117 1263 C -117 1014 -15 759 -15 498 C -15 312 -60 135 -189 0 C -60 -135 -15 -312 -15 -498 z" stroke-linecap="round" />
</g>
</svg>