<svg width="600" height="400" xmlns="http://www.w3.org/2000/svg">
 <g>
  <title>Layer 1</title>
  <desc>Created with Fabric.js 5.2.4</desc>
  <rect id="svg_1" x="-13.84618" y="-58.76934" width="800" height="600" fill="transparent"/>
  <g transform="matrix(1 0 0 1 540 540)" id="svg_42"/>
  <g transform="matrix(1 0 0 1 540 540)" id="svg_41">
   <rect id="svg_2" vector-effect="non-scaling-stroke" x="-554.84618" y="-606.76934" width="1080" height="1080" stroke=" none" stroke-dasharray=" none" stroke-linecap=" butt" stroke-dashoffset="0" stroke-linejoin=" miter" stroke-miterlimit="4" fill=" rgb(255,255,255)" fill-rule=" nonzero"/>
  </g>
  <g id="svg_3" transform="matrix(4.3 0 0 4.3 113.63 379.22)">
   <g id="svg_4" vector-effect="non-scaling-stroke">
    <g id="svg_5" transform="matrix(1 0 0 1 7.34 -6.83)">
     <path id="svg_6" vector-effect="non-scaling-stroke" d="m-1.92006,-13.66527c0.00767,0.36938 -0.14955,0.73865 -0.43121,0.97985c-0.36025,0.32891 -0.90945,0.39628 -1.3583,0.22886c-0.44485,-0.17177 -0.7737,-0.61188 -0.79903,-1.09011c-0.03378,-0.37371 0.0854,-0.76581 0.35602,-1.03193c0.2551,-0.27187 0.63497,-0.4047 1.004,-0.38222c0.37984,0.00807 0.74658,0.19956 0.97342,0.50374c0.17473,0.22433 0.25749,0.50935 0.2551,0.79181z" stroke-linecap=" butt" stroke=" none" stroke-dasharray=" none" stroke-dashoffset="0" stroke-linejoin=" miter" stroke-miterlimit="4" fill=" rgb(0,0,0)" fill-rule=" nonzero"/>
    </g>
    <g id="svg_7" transform="matrix(1 0 0 1 7.34 -0.99)">
     <path id="svg_8" vector-effect="non-scaling-stroke" d="m-1.92006,-13.67229c0.00773,0.36967 -0.14923,0.73944 -0.43121,0.98083c-0.36025,0.32891 -0.90945,0.39628 -1.3583,0.22887c-0.44511,-0.17184 -0.77393,-0.61235 -0.79903,-1.09083c-0.03494,-0.37399 0.09209,-0.76081 0.35555,-1.03089c0.24963,-0.27846 0.6336,-0.4051 1.00145,-0.3835c0.48385,0.01332 0.92314,0.34301 1.12317,0.77515c0.07403,0.16275 0.10881,0.34192 0.10837,0.52037z" stroke-linecap=" butt" stroke=" none" stroke-dasharray=" none" stroke-dashoffset="0" stroke-linejoin=" miter" stroke-miterlimit="4" fill=" rgb(0,0,0)" fill-rule=" nonzero"/>
    </g>
    <g id="svg_9" transform="matrix(1 0 0 1 -2.14 0)">
     <path id="svg_10" vector-effect="non-scaling-stroke" d="m3.27896,-16.42931c0.04498,2.8246 -1.2154,5.57017 -3.21431,7.53651c-2.48942,2.48828 -5.74678,4.07085 -9.06707,5.12812c-0.44172,0.23921 -1.10792,-0.07618 -0.41212,-0.40117c1.33796,-0.60855 2.72769,-1.13094 3.96014,-1.95064c2.72235,-1.6833 5.01959,-4.33406 5.57715,-7.56226c0.32492,-1.96502 0.23445,-4.01059 -0.25795,-5.94002c-0.36132,-1.41859 -1.34451,-2.88302 -2.90132,-3.09265c-1.41284,-0.21626 -2.91467,0.27318 -3.92295,1.29506c-0.26516,0.26874 -0.78141,1.0131 -0.69622,1.86654c0.60202,-0.47279 0.56093,-0.42015 1.05465,-0.6403c1.13673,-0.50686 2.64449,0.21388 2.928,1.46555c0.30209,1.15023 0.06851,2.61366 -1.06664,3.22688c-1.18524,0.64453 -2.93424,0.37778 -3.59586,-0.89094c-1.09534,-1.95448 -0.49303,-4.62673 1.27752,-5.98295c1.80312,-1.49647 4.43407,-1.55482 6.55761,-0.78709c2.18456,0.81249 3.48666,3.07621 3.69728,5.31832c0.05728,0.46798 0.08205,0.93974 0.08209,1.41104z" stroke-linecap=" butt" stroke=" none" stroke-dasharray=" none" stroke-dashoffset="0" stroke-linejoin=" miter" stroke-miterlimit="4" fill=" rgb(0,0,0)" fill-rule=" nonzero"/>
    </g>
   </g>
  </g>
  <g id="svg_11" transform="matrix(0.105698 0 0 -0.102596 120.676 192.893)">
   <path id="svg_12" vector-effect="non-scaling-stroke" d="m-8.32342,668.82368c0,89 -65,150 -155,150c7,-44 34,-203 55,-323c71,29 100,102 100,173zm-142,-185l-58,329c-59,-14 -104,-63 -104,-124c0,-49 22,-75 61,-99c12,-8 22,-13 22,-22c0,-9 -9,-13 -17,-13c-80,0 -135,96 -135,166c0,94 62,190 153,217c-7,41 -14,88 -23,142c-15,-15 -31,-29 -48,-44c-88,-76 -174,-185 -174,-307c0,-151 122,-251 265,-251c19,0 38,2 58,6zm-88,1028c-8,-31 -11,-65 -11,-102c0,-42 5,-81 11,-121c69,68 146,146 146,250c0,69 -24,118 -39,118c-52,0 -98,-105 -107,-145zm-210,-1335c0,66 45,123 115,123c75,0 116,-57 116,-111c0,-64 -47,-104 -94,-111c-3,-1 -5,-2 -5,-4c0,-1 2,-2 3,-3c2,0 23,-5 47,-5c101,0 154,55 154,159c0,53 -11,123 -30,219c-23,-4 -50,-7 -79,-7c-186,0 -349,147 -349,334c0,200 126,321 217,406c21,17 73,70 74,71c-17,112 -22,161 -22,215c0,84 18,212 82,288c33,39 64,51 71,51c18,0 47,-35 71,-86c16,-36 44,-110 44,-201c0,-159 -73,-284 -179,-395c9,-56 19,-115 29,-175c146,0 253,-102 253,-253c0,-103 -73,-205 -171,-237c6,-39 12,-69 15,-89c10,-57 16,-102 16,-141c0,-63 -14,-129 -68,-167c-36,-22 -77,-34 -124,-34c-135,0 -186,87 -186,153z" stroke-linecap=" butt" stroke=" none" stroke-dasharray=" none" stroke-dashoffset="0" stroke-linejoin=" miter" stroke-miterlimit="4" fill=" rgb(0,0,0)" fill-rule=" nonzero"/>
  </g>
  <g transform="matrix(25.98 0 0 25.98 -132.26 57.29)" id="svg_40">
   <text id="svg_13" xml:space="preserve" font-family="Century Schoolbook L" font-size="2.1995" font-style="normal" font-weight="normal" stroke=" none" stroke-dasharray=" none" stroke-linecap=" butt" stroke-dashoffset="0" stroke-linejoin=" miter" stroke-miterlimit="4" fill=" rgb(0,0,0)" fill-rule=" nonzero" y="-2.2621" x="-0.53296"/>
  </g>
  <g transform="matrix(25.98 0 0 25.98 562.19 206.76)" id="svg_39">
   <line id="svg_14" vector-effect="non-scaling-stroke" x1="-19.66796" y1="-2.2621" x2="18.60204" y2="-2.2621" stroke=" rgb(0,0,0)" stroke-dasharray=" none" stroke-linecap=" round" stroke-dashoffset="0" stroke-linejoin=" round" stroke-miterlimit="4" fill=" rgb(0,0,0)" fill-rule=" nonzero"/>
  </g>
  <g transform="matrix(25.98 0 0 25.98 562.19 180.78)" id="svg_38">
   <line id="svg_15" vector-effect="non-scaling-stroke" x1="-19.66796" y1="-2.2621" x2="18.60204" y2="-2.2621" stroke=" rgb(0,0,0)" stroke-dasharray=" none" stroke-linecap=" round" stroke-dashoffset="0" stroke-linejoin=" round" stroke-miterlimit="4" fill=" rgb(0,0,0)" fill-rule=" nonzero"/>
  </g>
  <g transform="matrix(25.98 0 0 25.98 562.19 154.8)" id="svg_37">
   <line id="svg_16" vector-effect="non-scaling-stroke" x1="-19.66796" y1="-2.2621" x2="18.60204" y2="-2.2621" stroke=" rgb(0,0,0)" stroke-dasharray=" none" stroke-linecap=" round" stroke-dashoffset="0" stroke-linejoin=" round" stroke-miterlimit="4" fill=" rgb(0,0,0)" fill-rule=" nonzero"/>
  </g>
  <g transform="matrix(25.98 0 0 25.98 560.8 128.87)" id="svg_36">
   <line id="svg_17" vector-effect="non-scaling-stroke" x1="-19.66796" y1="-2.2621" x2="18.60204" y2="-2.2621" stroke=" rgb(0,0,0)" stroke-dasharray=" none" stroke-linecap=" round" stroke-dashoffset="0" stroke-linejoin=" round" stroke-miterlimit="4" fill=" rgb(0,0,0)" fill-rule=" nonzero"/>
  </g>
  <g transform="matrix(25.98 0 0 25.98 562.19 102.89)" id="svg_35">
   <line id="svg_18" vector-effect="non-scaling-stroke" x1="-19.66796" y1="-2.2621" x2="18.60204" y2="-2.2621" stroke=" rgb(0,0,0)" stroke-dasharray=" none" stroke-linecap=" round" stroke-dashoffset="0" stroke-linejoin=" round" stroke-miterlimit="4" fill=" rgb(0,0,0)" fill-rule=" nonzero"/>
  </g>
  <g transform="matrix(25.98 0 0 25.98 562.19 440.43)" id="svg_34">
   <line id="svg_19" vector-effect="non-scaling-stroke" x1="-19.66796" y1="-2.2621" x2="18.60204" y2="-2.2621" stroke=" rgb(0,0,0)" stroke-dasharray=" none" stroke-linecap=" round" stroke-dashoffset="0" stroke-linejoin=" round" stroke-miterlimit="4" fill=" rgb(0,0,0)" fill-rule=" nonzero"/>
  </g>
  <g transform="matrix(25.98 0 0 25.98 562.19 414.45)" id="svg_33">
   <line id="svg_20" vector-effect="non-scaling-stroke" x1="-19.66796" y1="-2.2621" x2="18.60204" y2="-2.2621" stroke=" rgb(0,0,0)" stroke-dasharray=" none" stroke-linecap=" round" stroke-dashoffset="0" stroke-linejoin=" round" stroke-miterlimit="4" fill=" rgb(0,0,0)" fill-rule=" nonzero"/>
  </g>
  <g transform="matrix(25.98 0 0 25.98 562.19 388.47)" id="svg_32">
   <line id="svg_21" vector-effect="non-scaling-stroke" x1="-19.66796" y1="-2.2621" x2="18.60204" y2="-2.2621" stroke=" rgb(0,0,0)" stroke-dasharray=" none" stroke-linecap=" round" stroke-dashoffset="0" stroke-linejoin=" round" stroke-miterlimit="4" fill=" rgb(0,0,0)" fill-rule=" nonzero"/>
  </g>
  <g transform="matrix(25.98 0 0 25.98 562.19 362.54)" id="svg_31">
   <line id="svg_22" vector-effect="non-scaling-stroke" x1="-19.66796" y1="-2.2621" x2="18.60204" y2="-2.2621" stroke=" rgb(0,0,0)" stroke-dasharray=" none" stroke-linecap=" round" stroke-dashoffset="0" stroke-linejoin=" round" stroke-miterlimit="4" fill=" rgb(0,0,0)" fill-rule=" nonzero"/>
  </g>
  <g transform="matrix(25.98 0 0 25.98 562.19 336.56)" id="svg_30">
   <line id="svg_23" vector-effect="non-scaling-stroke" x1="-19.66796" y1="-2.2621" x2="18.60204" y2="-2.2621" stroke=" rgb(0,0,0)" stroke-dasharray=" none" stroke-linecap=" round" stroke-dashoffset="0" stroke-linejoin=" round" stroke-miterlimit="4" fill=" rgb(0,0,0)" fill-rule=" nonzero"/>
  </g>
  <g transform="matrix(25.98 0 0 25.98 63.87 271.3)" id="svg_29">
   <rect id="svg_24" vector-effect="non-scaling-stroke" x="-0.61296" y="-8.8121" rx="0.05" ry="0.05" width="0.16" height="13.1" stroke=" none" stroke-dasharray=" none" stroke-linecap=" butt" stroke-dashoffset="0" stroke-linejoin=" miter" stroke-miterlimit="4" fill=" rgb(0,0,0)" fill-rule=" nonzero"/>
  </g>
  <g id="svg_25" transform="matrix(0.1 0 0 -0.1 39.11 270.66)">
   <path id="svg_26" vector-effect="non-scaling-stroke" d="m-54.46179,89.69344c0,-261 -102,-516 -102,-765c0,-135 30,-261 129,-360c3,-3 3,-9 3,-12c0,-9 -6,-18 -15,-18c-3,0 -9,3 -12,6c-132,135 -177,312 -177,501c0,267 108,528 108,780c0,135 -33,261 -129,360c-3,3 -3,3 -3,6c0,3 0,3 3,6c96,99 129,225 129,360c0,252 -108,513 -108,780c0,189 45,366 177,501c3,3 9,6 12,6c9,0 15,-9 15,-18c0,-3 0,-9 -3,-12c-99,-99 -129,-225 -129,-360c0,-249 102,-504 102,-765c0,-186 -45,-363 -174,-498c129,-135 174,-312 174,-498z" stroke-linecap=" butt" stroke=" none" stroke-dasharray=" none" stroke-dashoffset="0" stroke-linejoin=" miter" stroke-miterlimit="4" fill=" rgb(0,0,0)" fill-rule=" nonzero"/>
  </g>
 </g>

</svg>