<svg width="100" height="400" xmlns="http://www.w3.org/2000/svg">
 <g>
  <title>Layer 1</title>
  <desc>Created with Fabric.js 5.2.4</desc>
  <rect id="svg_1" x="-62.84618" y="-58.76934" width="800" height="600" fill="transparent"/>
  <g transform="matrix(1 0 0 1 540 540)" id="svg_42"/>
  <g transform="matrix(1 0 0 1 540 540)" id="svg_41">
   <rect id="svg_2" vector-effect="non-scaling-stroke" x="-602.84618" y="-606.76934" width="1080" height="1080" stroke=" none" stroke-dasharray=" none" stroke-linecap=" butt" stroke-dashoffset="0" stroke-linejoin=" miter" stroke-miterlimit="4" fill=" rgb(255,255,255)" fill-rule=" nonzero"/>
  </g>
  <g transform="matrix(25.98 0 0 25.98 -132.26 57.29)" id="svg_40">
   <text id="svg_13" xml:space="preserve" font-family="Century Schoolbook L" font-size="2.1995" font-style="normal" font-weight="normal" stroke=" none" stroke-dasharray=" none" stroke-linecap=" butt" stroke-dashoffset="0" stroke-linejoin=" miter" stroke-miterlimit="4" fill=" rgb(0,0,0)" fill-rule=" nonzero" y="-2.2621" x="-2.41903"/>
  </g>
  <g transform="matrix(25.98 0 0 25.98 562.19 206.76)" id="svg_39">
   <line id="svg_14" vector-effect="non-scaling-stroke" x1="-21.55403" y1="-2.2621" x2="16.71597" y2="-2.2621" stroke=" rgb(0,0,0)" stroke-dasharray=" none" stroke-linecap=" round" stroke-dashoffset="0" stroke-linejoin=" round" stroke-miterlimit="4" fill=" rgb(0,0,0)" fill-rule=" nonzero"/>
  </g>
  <g transform="matrix(25.98 0 0 25.98 562.19 180.78)" id="svg_38">
   <line id="svg_15" vector-effect="non-scaling-stroke" x1="-21.55403" y1="-2.2621" x2="16.71597" y2="-2.2621" stroke=" rgb(0,0,0)" stroke-dasharray=" none" stroke-linecap=" round" stroke-dashoffset="0" stroke-linejoin=" round" stroke-miterlimit="4" fill=" rgb(0,0,0)" fill-rule=" nonzero"/>
  </g>
  <g transform="matrix(25.98 0 0 25.98 562.19 154.8)" id="svg_37">
   <line id="svg_16" vector-effect="non-scaling-stroke" x1="-21.55403" y1="-2.2621" x2="16.71597" y2="-2.2621" stroke=" rgb(0,0,0)" stroke-dasharray=" none" stroke-linecap=" round" stroke-dashoffset="0" stroke-linejoin=" round" stroke-miterlimit="4" fill=" rgb(0,0,0)" fill-rule=" nonzero"/>
  </g>
  <g transform="matrix(25.98 0 0 25.98 560.8 128.87)" id="svg_36">
   <line id="svg_17" vector-effect="non-scaling-stroke" x1="-21.55403" y1="-2.2621" x2="16.71597" y2="-2.2621" stroke=" rgb(0,0,0)" stroke-dasharray=" none" stroke-linecap=" round" stroke-dashoffset="0" stroke-linejoin=" round" stroke-miterlimit="4" fill=" rgb(0,0,0)" fill-rule=" nonzero"/>
  </g>
  <g transform="matrix(25.98 0 0 25.98 562.19 102.89)" id="svg_35">
   <line id="svg_18" vector-effect="non-scaling-stroke" x1="-21.55403" y1="-2.2621" x2="16.71597" y2="-2.2621" stroke=" rgb(0,0,0)" stroke-dasharray=" none" stroke-linecap=" round" stroke-dashoffset="0" stroke-linejoin=" round" stroke-miterlimit="4" fill=" rgb(0,0,0)" fill-rule=" nonzero"/>
  </g>
  <g transform="matrix(25.98 0 0 25.98 562.19 440.43)" id="svg_34">
   <line id="svg_19" vector-effect="non-scaling-stroke" x1="-21.55403" y1="-2.2621" x2="16.71597" y2="-2.2621" stroke=" rgb(0,0,0)" stroke-dasharray=" none" stroke-linecap=" round" stroke-dashoffset="0" stroke-linejoin=" round" stroke-miterlimit="4" fill=" rgb(0,0,0)" fill-rule=" nonzero"/>
  </g>
  <g transform="matrix(25.98 0 0 25.98 562.19 414.45)" id="svg_33">
   <line id="svg_20" vector-effect="non-scaling-stroke" x1="-21.55403" y1="-2.2621" x2="16.71597" y2="-2.2621" stroke=" rgb(0,0,0)" stroke-dasharray=" none" stroke-linecap=" round" stroke-dashoffset="0" stroke-linejoin=" round" stroke-miterlimit="4" fill=" rgb(0,0,0)" fill-rule=" nonzero"/>
  </g>
  <g transform="matrix(25.98 0 0 25.98 562.19 388.47)" id="svg_32">
   <line id="svg_21" vector-effect="non-scaling-stroke" x1="-21.55403" y1="-2.2621" x2="16.71597" y2="-2.2621" stroke=" rgb(0,0,0)" stroke-dasharray=" none" stroke-linecap=" round" stroke-dashoffset="0" stroke-linejoin=" round" stroke-miterlimit="4" fill=" rgb(0,0,0)" fill-rule=" nonzero"/>
  </g>
  <g transform="matrix(25.98 0 0 25.98 562.19 362.54)" id="svg_31">
   <line id="svg_22" vector-effect="non-scaling-stroke" x1="-21.55403" y1="-2.2621" x2="16.71597" y2="-2.2621" stroke=" rgb(0,0,0)" stroke-dasharray=" none" stroke-linecap=" round" stroke-dashoffset="0" stroke-linejoin=" round" stroke-miterlimit="4" fill=" rgb(0,0,0)" fill-rule=" nonzero"/>
  </g>
  <g transform="matrix(25.98 0 0 25.98 562.19 336.56)" id="svg_30">
   <line id="svg_23" vector-effect="non-scaling-stroke" x1="-21.55403" y1="-2.2621" x2="16.71597" y2="-2.2621" stroke=" rgb(0,0,0)" stroke-dasharray=" none" stroke-linecap=" round" stroke-dashoffset="0" stroke-linejoin=" round" stroke-miterlimit="4" fill=" rgb(0,0,0)" fill-rule=" nonzero"/>
  </g>
 </g>

</svg>