<?xml version="1.0" encoding="UTF-8" standalone="no"?>
<svg
   xmlns:dc="http://purl.org/dc/elements/1.1/"
   xmlns:cc="http://creativecommons.org/ns#"
   xmlns:rdf="http://www.w3.org/1999/02/22-rdf-syntax-ns#"
   xmlns:svg="http://www.w3.org/2000/svg"
   xmlns="http://www.w3.org/2000/svg"
   xmlns:sodipodi="http://sodipodi.sourceforge.net/DTD/sodipodi-0.dtd"
   xmlns:inkscape="http://www.inkscape.org/namespaces/inkscape"
   version="1.2"
   width="246.46321"
   height="82.341202"
   viewBox="0 0 39.582 13.224"
   id="svg2"
   inkscape:version="0.48.5 r10040"
   sodipodi:docname="GrandStaff.svg">
  <metadata
     id="metadata78">
    <rdf:RDF>
      <cc:Work
         rdf:about="">
        <dc:format>image/svg+xml</dc:format>
        <dc:type
           rdf:resource="http://purl.org/dc/dcmitype/StillImage" />
      </cc:Work>
    </rdf:RDF>
  </metadata>
  <defs
     id="defs76" />
  <sodipodi:namedview
     pagecolor="#ffffff"
     bordercolor="#666666"
     borderopacity="1"
     objecttolerance="10"
     gridtolerance="10"
     guidetolerance="10"
     inkscape:pageopacity="0"
     inkscape:pageshadow="2"
     inkscape:window-width="1920"
     inkscape:window-height="1018"
     id="namedview74"
     showgrid="false"
     fit-margin-top="0"
     fit-margin-left="0"
     fit-margin-right="0"
     fit-margin-bottom="0"
     inkscape:zoom="1"
     inkscape:cx="291.01114"
     inkscape:cy="19.717402"
     inkscape:window-x="-8"
     inkscape:window-y="-8"
     inkscape:window-maximized="1"
     inkscape:current-layer="svg2" />
  <!-- Page: 1/1 -->
  <text
     transform="translate(-7.3238,-0.93800174)"
     font-size="2.1995"
     id="text4"
     style="font-size:2.19950008px;text-anchor:start;fill:currentColor;font-family:Century Schoolbook L">
    <tspan
       id="tspan6" />
  </text>
  <rect
     transform="translate(39.392,2.1119983)"
     x="0"
     y="-2.05"
     width="0.19"
     height="4.0999999"
     ry="0"
     id="rect12"
     style="fill:currentColor" />
  <rect
     transform="translate(39.392,11.111998)"
     x="0"
     y="-2.05"
     width="0.19"
     height="4.0999999"
     ry="0"
     id="rect16"
     style="fill:currentColor" />
  <rect
     transform="translate(39.392,0.06199826)"
     x="0"
     y="4.0999999"
     width="0.19"
     height="4.9000001"
     ry="0"
     id="rect26"
     style="fill:currentColor" />
  <line
     transform="translate(1.212,4.1119983)"
     x1="0.050000001"
     y1="0"
     x2="38.32"
     y2="0"
     id="line38"
     style="stroke:currentColor;stroke-width:0.1;stroke-linecap:round;stroke-linejoin:round" />
  <line
     transform="translate(1.212,3.1119983)"
     x1="0.050000001"
     y1="0"
     x2="38.32"
     y2="0"
     id="line40"
     style="stroke:currentColor;stroke-width:0.1;stroke-linecap:round;stroke-linejoin:round" />
  <line
     transform="translate(1.212,2.1119983)"
     x1="0.050000001"
     y1="0"
     x2="38.32"
     y2="0"
     id="line42"
     style="stroke:currentColor;stroke-width:0.1;stroke-linecap:round;stroke-linejoin:round" />
  <line
     transform="translate(1.212,1.1119983)"
     x1="0.050000001"
     y1="0"
     x2="38.32"
     y2="0"
     id="line44"
     style="stroke:currentColor;stroke-width:0.1;stroke-linecap:round;stroke-linejoin:round" />
  <line
     transform="translate(1.212,0.11199826)"
     x1="0.050000001"
     y1="0"
     x2="38.32"
     y2="0"
     id="line46"
     style="stroke:currentColor;stroke-width:0.1;stroke-linecap:round;stroke-linejoin:round" />
  <line
     transform="translate(1.212,13.111998)"
     x1="0.050000001"
     y1="0"
     x2="38.32"
     y2="0"
     id="line50"
     style="stroke:currentColor;stroke-width:0.1;stroke-linecap:round;stroke-linejoin:round" />
  <line
     transform="translate(1.212,12.111998)"
     x1="0.050000001"
     y1="0"
     x2="38.32"
     y2="0"
     id="line52"
     style="stroke:currentColor;stroke-width:0.1;stroke-linecap:round;stroke-linejoin:round" />
  <line
     transform="translate(1.212,11.111998)"
     x1="0.050000001"
     y1="0"
     x2="38.32"
     y2="0"
     id="line54"
     style="stroke:currentColor;stroke-width:0.1;stroke-linecap:round;stroke-linejoin:round" />
  <line
     transform="translate(1.212,10.111998)"
     x1="0.050000001"
     y1="0"
     x2="38.32"
     y2="0"
     id="line56"
     style="stroke:currentColor;stroke-width:0.1;stroke-linecap:round;stroke-linejoin:round" />
  <line
     transform="translate(1.212,9.1119983)"
     x1="0.050000001"
     y1="0"
     x2="38.32"
     y2="0"
     id="line58"
     style="stroke:currentColor;stroke-width:0.1;stroke-linecap:round;stroke-linejoin:round" />
  <rect
     transform="translate(1.152,6.6119983)"
     x="0"
     y="-6.5500002"
     width="0.16"
     height="13.1"
     ry="0.050000001"
     id="rect70"
     style="fill:currentColor" />
  <path
     transform="matrix(0.004,0,0,-0.004,0.852,6.6119983)"
     d="m -15,-498 c 0,-261 -102,-516 -102,-765 0,-135 30,-261 129,-360 3,-3 3,-9 3,-12 0,-9 -6,-18 -15,-18 -3,0 -9,3 -12,6 -132,135 -177,312 -177,501 0,267 108,528 108,780 0,135 -33,261 -129,360 -3,3 -3,3 -3,6 0,3 0,3 3,6 96,99 129,225 129,360 0,252 -108,513 -108,780 0,189 45,366 177,501 3,3 9,6 12,6 9,0 15,-9 15,-18 0,-3 0,-9 -3,-12 -99,-99 -129,-225 -129,-360 0,-249 102,-504 102,-765 C -15,312 -60,135 -189,0 -60,-135 -15,-312 -15,-498 z"
     id="path72"
     inkscape:connector-curvature="0"
     style="fill:currentColor" />
</svg>
